<?xml version="1.0" encoding="utf-8"?>
<!-- Generator: Adobe Illustrator 16.0.0, SVG Export Plug-In . SVG Version: 6.00 Build 0)  -->
<!DOCTYPE svg PUBLIC "-//W3C//DTD SVG 1.1//EN" "http://www.w3.org/Graphics/SVG/1.1/DTD/svg11.dtd">
<svg version="1.1" id="Capa_1" xmlns="http://www.w3.org/2000/svg" xmlns:xlink="http://www.w3.org/1999/xlink" x="0px" y="0px"
	 width="850.39px" height="806px" viewBox="0 0 850.39 806" enable-background="new 0 0 850.39 806" xml:space="preserve">
<g>
	<g>
		<g>
			<g>
				<g>
					<path fill="#41D3C9" d="M423.094,82.323c0,0,0.141,0.291,0.355,0.836c0.201,0.546,0.547,1.348,0.886,2.366
						c0.707,2.039,1.571,4.95,2.338,8.444c0.38,1.746,0.743,3.638,1.067,5.64c0.307,2.003,0.609,4.114,0.83,6.297
						c0.459,4.367,0.68,9.026,0.674,13.685c-0.017,4.659-0.243,9.317-0.711,13.684c-0.475,4.369-1.131,8.445-1.902,11.939
						c-0.761,3.492-1.617,6.404-2.314,8.443c-0.331,1.018-0.674,1.82-0.873,2.365c-0.213,0.546-0.35,0.837-0.35,0.837h-1.055
						c0,0-0.136-0.291-0.35-0.837c-0.198-0.544-0.545-1.347-0.873-2.365c-0.697-2.039-1.553-4.951-2.314-8.443
						c-0.771-3.495-1.428-7.571-1.901-11.939c-0.469-4.367-0.694-9.025-0.714-13.684c-0.004-4.659,0.216-9.317,0.675-13.685
						c0.222-2.184,0.526-4.294,0.831-6.297c0.325-2.001,0.689-3.894,1.068-5.64c0.766-3.494,1.631-6.405,2.336-8.444
						c0.338-1.018,0.683-1.82,0.888-2.366c0.215-0.545,0.354-0.836,0.354-0.836H423.094z"/>
					<path fill="#41D3C9" d="M459.837,120.118c0,0-0.292,0.141-0.839,0.356c-0.545,0.203-1.348,0.549-2.367,0.887
						c-2.035,0.704-4.949,1.57-8.443,2.337c-1.746,0.38-3.637,0.743-5.64,1.068c-2.003,0.306-4.113,0.609-6.296,0.83
						c-4.369,0.459-9.026,0.679-13.686,0.674c-4.658-0.017-9.319-0.246-13.686-0.712c-4.365-0.475-8.444-1.132-11.938-1.902
						c-3.492-0.763-6.404-1.616-8.443-2.312c-1.02-0.333-1.82-0.677-2.365-0.875c-0.548-0.214-0.838-0.351-0.838-0.351v-1.055
						c0,0,0.29-0.135,0.838-0.349c0.545-0.198,1.346-0.541,2.365-0.874c2.039-0.696,4.951-1.55,8.443-2.313
						c3.493-0.771,7.572-1.427,11.938-1.902c4.366-0.467,9.027-0.697,13.686-0.711c4.659-0.008,9.316,0.215,13.686,0.673
						c2.183,0.22,4.293,0.523,6.296,0.83c2.003,0.326,3.894,0.689,5.64,1.068c3.494,0.768,6.408,1.632,8.443,2.337
						c1.02,0.339,1.822,0.685,2.367,0.887c0.547,0.215,0.839,0.353,0.839,0.353V120.118z"/>
				</g>
				<g>
					<path fill="#41D3C9" d="M591.152,342.582c0,0,0.141,0.292,0.355,0.837c0.203,0.547,0.549,1.348,0.888,2.367
						c0.705,2.037,1.569,4.949,2.338,8.442c0.38,1.749,0.741,3.64,1.065,5.641c0.309,2.003,0.614,4.115,0.83,6.298
						c0.461,4.367,0.682,9.026,0.674,13.684c-0.014,4.659-0.241,9.317-0.709,13.685c-0.477,4.368-1.131,8.444-1.902,11.937
						c-0.76,3.494-1.617,6.404-2.313,8.443c-0.331,1.019-0.677,1.82-0.874,2.368c-0.213,0.545-0.352,0.835-0.352,0.835h-1.051
						c0,0-0.137-0.29-0.353-0.835c-0.198-0.548-0.54-1.35-0.873-2.368c-0.694-2.039-1.55-4.949-2.315-8.443
						c-0.768-3.493-1.426-7.569-1.9-11.937c-0.465-4.368-0.695-9.026-0.712-13.685c-0.006-4.658,0.214-9.317,0.673-13.684
						c0.221-2.184,0.527-4.295,0.83-6.298c0.326-2.001,0.69-3.892,1.068-5.641c0.768-3.494,1.633-6.405,2.34-8.442
						c0.336-1.019,0.683-1.82,0.882-2.367c0.218-0.545,0.36-0.837,0.36-0.837H591.152z"/>
					<path fill="#41D3C9" d="M627.896,380.379c0,0-0.291,0.139-0.836,0.356c-0.549,0.202-1.348,0.547-2.367,0.886
						c-2.039,0.704-4.951,1.569-8.446,2.334c-1.746,0.382-3.638,0.746-5.641,1.07c-2.001,0.305-4.112,0.61-6.292,0.831
						c-4.369,0.459-9.029,0.679-13.688,0.673c-4.657-0.015-9.317-0.245-13.686-0.71c-4.367-0.477-8.445-1.133-11.939-1.904
						c-3.494-0.762-6.402-1.616-8.439-2.311c-1.021-0.333-1.821-0.678-2.367-0.876c-0.545-0.212-0.836-0.349-0.836-0.349v-1.055
						c0,0,0.291-0.136,0.836-0.351c0.546-0.198,1.346-0.541,2.367-0.873c2.037-0.696,4.945-1.55,8.439-2.313
						c3.494-0.771,7.572-1.426,11.939-1.904c4.368-0.464,9.028-0.693,13.686-0.709c4.658-0.006,9.318,0.215,13.688,0.674
						c2.18,0.218,4.291,0.522,6.292,0.829c2.003,0.327,3.895,0.689,5.641,1.068c3.495,0.768,6.407,1.633,8.446,2.336
						c1.02,0.339,1.818,0.686,2.367,0.885c0.545,0.218,0.836,0.357,0.836,0.357V380.379z"/>
				</g>
				<g>
					<path fill="#41D3C9" d="M654.863,244.483c0,0,0.08,0.176,0.213,0.506c0.121,0.329,0.33,0.813,0.533,1.428
						c0.428,1.229,0.951,2.99,1.412,5.099c0.229,1.054,0.449,2.196,0.645,3.403c0.188,1.208,0.367,2.485,0.502,3.804
						c0.275,2.638,0.408,5.449,0.406,8.263c-0.01,2.811-0.15,5.625-0.43,8.26c-0.286,2.638-0.682,5.1-1.149,7.208
						c-0.459,2.107-0.977,3.868-1.395,5.098c-0.202,0.616-0.409,1.099-0.528,1.429c-0.13,0.329-0.209,0.507-0.209,0.507h-0.641
						c0,0-0.081-0.178-0.211-0.507c-0.118-0.33-0.326-0.813-0.525-1.429c-0.42-1.229-0.938-2.99-1.398-5.098
						c-0.465-2.109-0.861-4.571-1.148-7.208c-0.283-2.636-0.422-5.449-0.426-8.26c-0.006-2.814,0.125-5.625,0.404-8.263
						c0.131-1.319,0.316-2.595,0.5-3.804c0.195-1.208,0.416-2.35,0.644-3.403c0.464-2.108,0.987-3.869,1.413-5.099
						c0.204-0.615,0.414-1.099,0.535-1.428c0.128-0.33,0.213-0.506,0.213-0.506H654.863z"/>
					<path fill="#41D3C9" d="M677.047,267.303c0,0-0.178,0.084-0.506,0.215c-0.329,0.122-0.814,0.331-1.432,0.534
						c-1.23,0.428-2.988,0.948-5.097,1.412c-1.056,0.23-2.196,0.449-3.407,0.645c-1.207,0.184-2.48,0.369-3.801,0.501
						c-2.635,0.277-5.451,0.411-8.263,0.406c-2.81-0.008-5.624-0.147-8.263-0.429c-2.639-0.288-5.1-0.683-7.206-1.149
						c-2.11-0.459-3.867-0.976-5.097-1.397c-0.617-0.199-1.101-0.408-1.43-0.526c-0.33-0.13-0.508-0.212-0.508-0.212v-0.637
						c0,0,0.178-0.082,0.508-0.21c0.329-0.12,0.813-0.326,1.43-0.528c1.229-0.419,2.986-0.935,5.097-1.395
						c2.106-0.466,4.567-0.863,7.206-1.15c2.639-0.281,5.453-0.42,8.263-0.429c2.812-0.004,5.628,0.129,8.263,0.408
						c1.32,0.131,2.594,0.316,3.801,0.5c1.211,0.197,2.352,0.416,3.407,0.646c2.108,0.461,3.866,0.985,5.097,1.41
						c0.617,0.205,1.103,0.415,1.432,0.535c0.328,0.131,0.506,0.214,0.506,0.214V267.303z"/>
				</g>
				<g>
					<path fill="#41D3C9" d="M371.595,289.488c0,0,0.085,0.176,0.216,0.504c0.122,0.332,0.33,0.813,0.536,1.43
						c0.423,1.229,0.948,2.99,1.409,5.1c0.231,1.054,0.449,2.195,0.648,3.403c0.181,1.21,0.363,2.483,0.499,3.804
						c0.276,2.634,0.411,5.449,0.406,8.263c-0.012,2.812-0.149,5.625-0.433,8.26c-0.282,2.638-0.68,5.097-1.145,7.207
						c-0.461,2.11-0.978,3.87-1.398,5.1c-0.198,0.617-0.406,1.099-0.527,1.43c-0.128,0.329-0.212,0.504-0.212,0.504h-0.636
						c0,0-0.084-0.176-0.211-0.504c-0.12-0.332-0.328-0.813-0.528-1.43c-0.419-1.23-0.938-2.989-1.396-5.1
						c-0.467-2.11-0.863-4.569-1.147-7.207c-0.284-2.636-0.422-5.448-0.429-8.26c-0.006-2.814,0.126-5.628,0.404-8.263
						c0.132-1.32,0.318-2.594,0.5-3.804c0.197-1.208,0.416-2.349,0.646-3.403c0.464-2.11,0.987-3.87,1.41-5.1
						c0.207-0.616,0.415-1.098,0.538-1.43c0.127-0.328,0.213-0.504,0.213-0.504H371.595z"/>
					<path fill="#41D3C9" d="M393.779,312.309c0,0-0.174,0.084-0.504,0.214c-0.33,0.123-0.813,0.33-1.43,0.535
						c-1.23,0.426-2.99,0.945-5.1,1.409c-1.053,0.23-2.194,0.451-3.405,0.646c-1.208,0.184-2.479,0.369-3.8,0.501
						c-2.639,0.278-5.45,0.41-8.266,0.406c-2.811-0.009-5.623-0.148-8.26-0.429c-2.637-0.288-5.1-0.683-7.211-1.148
						c-2.109-0.461-3.867-0.976-5.096-1.397c-0.615-0.2-1.099-0.408-1.428-0.528c-0.331-0.128-0.506-0.209-0.506-0.209v-0.638
						c0,0,0.175-0.081,0.506-0.209c0.329-0.121,0.813-0.328,1.428-0.527c1.229-0.422,2.986-0.937,5.096-1.398
						c2.111-0.463,4.574-0.863,7.211-1.148c2.637-0.283,5.449-0.421,8.26-0.429c2.815-0.003,5.627,0.128,8.266,0.405
						c1.32,0.133,2.592,0.318,3.8,0.502c1.211,0.198,2.353,0.416,3.405,0.646c2.109,0.463,3.869,0.986,5.1,1.411
						c0.617,0.204,1.1,0.413,1.43,0.534c0.33,0.131,0.504,0.215,0.504,0.215V312.309z"/>
				</g>
				<g>
					<path fill="#41D3C9" d="M585.689,119.591c0,0,0.141,0.292,0.355,0.837c0.201,0.546,0.547,1.348,0.885,2.366
						c0.709,2.039,1.572,4.95,2.34,8.444c0.375,1.747,0.74,3.639,1.064,5.64c0.307,2.003,0.611,4.114,0.832,6.297
						c0.459,4.367,0.682,9.025,0.672,13.686c-0.014,4.658-0.242,9.316-0.709,13.684c-0.476,4.366-1.131,8.445-1.902,11.938
						c-0.764,3.494-1.617,6.406-2.311,8.444c-0.334,1.02-0.68,1.819-0.875,2.365c-0.216,0.546-0.352,0.838-0.352,0.838h-1.055
						c0,0-0.134-0.292-0.352-0.838c-0.196-0.545-0.542-1.345-0.873-2.365c-0.696-2.039-1.551-4.95-2.313-8.444
						c-0.769-3.493-1.428-7.571-1.899-11.938c-0.469-4.368-0.697-9.026-0.713-13.684c-0.008-4.66,0.213-9.318,0.673-13.686
						c0.221-2.184,0.523-4.294,0.83-6.297c0.325-2.001,0.689-3.893,1.069-5.64c0.766-3.494,1.631-6.405,2.336-8.444
						c0.339-1.018,0.684-1.82,0.885-2.366c0.219-0.545,0.357-0.837,0.357-0.837H585.689z"/>
					<path fill="#41D3C9" d="M622.432,157.388c0,0-0.293,0.139-0.838,0.355c-0.547,0.202-1.348,0.548-2.367,0.887
						c-2.037,0.704-4.947,1.569-8.443,2.337c-1.748,0.38-3.64,0.742-5.641,1.067c-2,0.306-4.111,0.61-6.295,0.831
						c-4.368,0.459-9.025,0.679-13.685,0.674c-4.659-0.016-9.317-0.246-13.688-0.712c-4.366-0.474-8.442-1.131-11.936-1.903
						c-3.495-0.761-6.403-1.616-8.444-2.311c-1.02-0.333-1.82-0.677-2.367-0.875c-0.545-0.214-0.834-0.351-0.834-0.351v-1.055
						c0,0,0.289-0.136,0.834-0.35c0.547-0.198,1.348-0.542,2.367-0.875c2.041-0.696,4.949-1.551,8.444-2.312
						c3.493-0.771,7.569-1.428,11.936-1.903c4.37-0.467,9.028-0.696,13.688-0.71c4.659-0.007,9.316,0.215,13.685,0.674
						c2.184,0.218,4.295,0.522,6.295,0.829c2.001,0.326,3.893,0.689,5.641,1.069c3.496,0.766,6.406,1.632,8.443,2.336
						c1.02,0.339,1.82,0.686,2.367,0.887c0.545,0.215,0.838,0.354,0.838,0.354V157.388z"/>
				</g>
				<g>
					<path fill="#41D3C9" d="M475.531,224.091c0,0,0.141,0.511,0.354,1.469c0.201,0.959,0.549,2.363,0.887,4.15
						c0.707,3.577,1.571,8.687,2.336,14.817c0.381,3.065,0.744,6.386,1.07,9.897c0.312,3.513,0.6,7.218,0.821,11.049
						c0.136,1.917,0.203,3.863,0.295,5.835c0.1,1.97,0.164,3.966,0.21,5.98c0.137,4.023,0.146,8.11,0.174,12.199
						c-0.03,4.086-0.059,8.172-0.195,12.196c-0.041,2.012-0.135,4.007-0.223,5.979c-0.082,1.973-0.169,3.92-0.303,5.837
						c-0.451,7.662-1.123,14.814-1.89,20.947c-0.763,6.13-1.618,11.24-2.313,14.815c-0.331,1.789-0.676,3.194-0.873,4.152
						c-0.231,0.959-0.35,1.469-0.35,1.469h-1.057c0,0-0.121-0.51-0.35-1.469c-0.199-0.958-0.544-2.364-0.873-4.152
						c-0.696-3.575-1.553-8.685-2.314-14.815c-0.767-6.133-1.438-13.286-1.891-20.947c-0.131-1.917-0.221-3.864-0.303-5.837
						c-0.09-1.971-0.182-3.967-0.222-5.979c-0.137-4.024-0.165-8.11-0.195-12.196c0.026-4.089,0.036-8.175,0.173-12.199
						c0.047-2.014,0.109-4.01,0.211-5.98c0.094-1.973,0.158-3.918,0.295-5.835c0.221-3.831,0.512-7.536,0.822-11.049
						c0.326-3.511,0.689-6.832,1.068-9.897c0.766-6.131,1.631-11.24,2.336-14.817c0.339-1.788,0.686-3.191,0.889-4.15
						c0.215-0.958,0.354-1.469,0.354-1.469H475.531z"/>
					<path fill="#41D3C9" d="M540.398,290.014c0,0-0.51,0.14-1.47,0.354c-0.957,0.202-2.362,0.55-4.151,0.888
						c-3.576,0.704-8.686,1.569-14.816,2.337c-3.064,0.378-6.385,0.74-9.898,1.066c-3.512,0.313-7.219,0.604-11.049,0.822
						c-1.916,0.136-3.861,0.202-5.836,0.296c-1.971,0.102-3.965,0.167-5.978,0.21c-4.022,0.137-8.11,0.146-12.197,0.174
						c-4.089-0.032-8.177-0.06-12.2-0.197c-2.01-0.039-4.006-0.132-5.979-0.222c-1.973-0.081-3.92-0.171-5.833-0.299
						c-7.665-0.456-14.817-1.127-20.946-1.895c-6.135-0.761-11.242-1.615-14.817-2.313c-1.789-0.333-3.194-0.674-4.151-0.874
						c-0.959-0.227-1.471-0.35-1.471-0.35v-1.054c0,0,0.512-0.123,1.471-0.35c0.957-0.198,2.362-0.543,4.151-0.876
						c3.575-0.695,8.683-1.55,14.817-2.311c6.129-0.767,13.281-1.438,20.946-1.892c1.913-0.133,3.86-0.223,5.833-0.304
						c1.973-0.09,3.969-0.181,5.979-0.222c4.023-0.138,8.111-0.165,12.2-0.195c4.087,0.028,8.175,0.037,12.197,0.174
						c2.013,0.045,4.007,0.109,5.978,0.21c1.975,0.093,3.92,0.159,5.836,0.294c3.83,0.222,7.537,0.511,11.049,0.823
						c3.514,0.326,6.834,0.688,9.898,1.07c6.131,0.767,11.24,1.632,14.816,2.336c1.789,0.336,3.194,0.685,4.151,0.886
						c0.96,0.216,1.47,0.356,1.47,0.356V290.014z"/>
				</g>
			</g>
		</g>
		<g>
			<g>
				<path fill="#41D3C9" stroke="#41D3C9" stroke-width="6" stroke-linejoin="round" stroke-miterlimit="10" d="M683.695,434.305
					c0,0-2.018,1.549-5.858,4.498c-1.928,1.47-4.311,3.289-7.127,5.436c-2.894,2.05-6.228,4.418-9.983,7.079
					c-3.758,2.667-8.119,5.355-12.8,8.452c-2.342,1.546-4.903,2.966-7.505,4.546c-2.635,1.523-5.295,3.253-8.213,4.753
					c-2.889,1.555-5.877,3.166-8.961,4.826c-3.133,1.574-6.408,3.111-9.758,4.738c-0.838,0.405-1.685,0.813-2.535,1.224
					c-0.865,0.372-1.743,0.744-2.623,1.122c-1.763,0.749-3.549,1.514-5.362,2.285c-3.591,1.62-7.42,2.936-11.297,4.391
					c-15.572,5.623-33.29,10.377-52.804,12.337c-19.465,2.132-40.65,1.473-62.334-2.54c-2.701-0.539-5.451-0.957-8.161-1.614
					c-2.716-0.634-5.45-1.269-8.198-1.908c-5.439-1.471-10.955-2.941-16.428-4.746c-10.97-3.507-21.96-7.7-32.916-12.461
					c-21.869-9.607-43.592-21.362-65.262-34.152c-21.68-12.791-42.39-25.896-62.547-38.188
					c-20.146-12.314-39.761-23.822-58.952-33.777c-9.594-4.968-19.05-9.625-28.41-13.747c-4.645-2.141-9.325-4.002-13.896-5.936
					c-2.297-0.929-4.602-1.785-6.875-2.674c-2.275-0.882-4.528-1.765-6.799-2.532c-18.061-6.467-35.363-11.175-51.445-14.011
					c-16.072-2.873-30.85-4.109-43.846-4.359c-6.5,0.025-12.56-0.037-18.123,0.345c-5.578,0.178-10.645,0.727-15.215,1.149
					c-1.143,0.113-2.252,0.218-3.333,0.321c-1.069,0.149-2.11,0.291-3.116,0.43c-2.016,0.279-3.903,0.537-5.656,0.778
					c-3.513,0.423-6.441,1.034-8.825,1.452c-4.766,0.861-7.268,1.313-7.268,1.313s2.479-0.571,7.198-1.656
					c2.364-0.525,5.272-1.271,8.771-1.85c1.742-0.314,3.623-0.656,5.632-1.022c1.003-0.178,2.041-0.367,3.112-0.562
					c1.075-0.15,2.185-0.302,3.325-0.46c4.566-0.614,9.643-1.374,15.246-1.769c5.588-0.605,11.689-0.773,18.249-1.037
					c13.121-0.224,28.117,0.513,44.509,2.925c16.393,2.368,34.104,6.658,52.598,12.772c2.327,0.724,4.635,1.563,6.965,2.402
					c2.327,0.845,4.688,1.661,7.044,2.555c4.674,1.849,9.471,3.636,14.22,5.708c9.585,3.976,19.243,8.505,29.041,13.361
					c19.585,9.733,39.524,21.063,59.86,33.232c20.355,12.15,41.112,25.137,62.654,37.85c21.532,12.704,42.91,24.411,64.285,34.039
					c10.699,4.77,21.4,8.992,32.061,12.561c5.314,1.833,10.662,3.34,15.942,4.861c2.661,0.66,5.312,1.324,7.939,1.979
					c2.629,0.688,5.287,1.134,7.905,1.706c21.002,4.269,41.522,5.346,60.531,3.738c19.042-1.437,36.514-5.591,51.999-10.644
					c3.856-1.318,7.669-2.491,11.261-3.978c1.812-0.701,3.598-1.396,5.363-2.085c0.88-0.339,1.756-0.68,2.625-1.021
					c0.857-0.373,1.704-0.749,2.545-1.12c3.365-1.499,6.656-2.902,9.811-4.357c3.113-1.534,6.13-3.022,9.047-4.461
					c2.945-1.381,5.646-3.001,8.32-4.414c2.641-1.474,5.245-2.787,7.633-4.229c4.77-2.895,9.222-5.4,13.071-7.899
					c3.856-2.495,7.282-4.713,10.249-6.633c2.906-2.018,5.366-3.726,7.353-5.105C681.605,435.757,683.695,434.305,683.695,434.305z"
					/>
			</g>
			<g>
				<path fill="#41D3C9" stroke="#41D3C9" stroke-width="6" stroke-linejoin="round" stroke-miterlimit="10" d="M630.895,465.525
					c0,0-1.816,1.401-5.273,4.074c-1.736,1.328-3.883,2.975-6.421,4.92c-2.603,1.853-5.608,3.997-8.991,6.406
					c-3.383,2.415-7.316,4.853-11.533,7.654c-2.112,1.398-4.422,2.68-6.766,4.115c-2.376,1.379-4.772,2.945-7.405,4.303
					c-10.302,5.829-22.513,11.688-36.566,16.848c-14.05,5.098-30.048,9.42-47.677,11.212c-17.584,1.946-36.729,1.376-56.324-2.232
					c-2.439-0.486-4.926-0.861-7.373-1.454c-2.456-0.567-4.924-1.138-7.408-1.717c-4.917-1.323-9.903-2.647-14.844-4.276
					c-9.915-3.161-19.844-6.945-29.736-11.235c-19.756-8.667-39.371-19.275-58.931-30.816
					c-19.562-11.547-38.246-23.374-56.423-34.471c-18.166-11.119-35.842-21.505-53.137-30.499
					c-8.646-4.488-17.171-8.695-25.602-12.421c-4.188-1.935-8.404-3.618-12.518-5.366c-4.166-1.615-8.244-3.286-12.323-4.712
					c-16.27-5.851-31.862-10.119-46.353-12.7c-14.488-2.613-27.806-3.753-39.528-4.001c-5.858,0.009-11.323-0.055-16.342,0.277
					c-5.03,0.146-9.606,0.635-13.726,1.006c-2.065,0.158-4.004,0.399-5.822,0.664c-1.817,0.247-3.52,0.477-5.099,0.691
					c-3.171,0.368-5.815,0.918-7.968,1.29c-4.301,0.766-6.56,1.165-6.56,1.165s2.236-0.518,6.49-1.509
					c2.131-0.479,4.757-1.158,7.911-1.686c1.574-0.286,3.268-0.603,5.082-0.933c1.809-0.355,3.742-0.689,5.805-0.939
					c4.121-0.561,8.703-1.259,13.756-1.627c5.041-0.555,10.547-0.721,16.469-0.966c11.846-0.227,25.387,0.416,40.189,2.566
					c14.807,2.117,30.799,5.963,47.51,11.462c4.191,1.339,8.371,2.924,12.654,4.458c4.223,1.666,8.551,3.278,12.845,5.142
					c8.655,3.578,17.384,7.66,26.23,12.035c17.685,8.767,35.694,18.981,54.05,29.956c18.371,10.951,37.102,22.662,56.527,34.128
					c19.416,11.457,38.691,22.017,57.948,30.704c9.642,4.303,19.281,8.114,28.881,11.334c4.791,1.657,9.606,3.018,14.36,4.391
					c2.398,0.601,4.785,1.194,7.154,1.792c2.365,0.619,4.762,1.022,7.119,1.543c18.914,3.862,37.393,4.856,54.518,3.434
					c17.159-1.271,32.906-4.993,46.875-9.525c13.966-4.594,26.243-9.917,36.678-15.279c2.666-1.238,5.096-2.693,7.514-3.965
					c2.386-1.322,4.735-2.499,6.891-3.802c4.309-2.599,8.33-4.85,11.809-7.097c3.484-2.243,6.577-4.235,9.262-5.96
					c2.623-1.818,4.845-3.351,6.643-4.59C629.007,466.834,630.895,465.525,630.895,465.525z"/>
			</g>
			<g>
				<path fill="#41D3C9" stroke="#41D3C9" stroke-width="6" stroke-linejoin="round" stroke-miterlimit="10" d="M589.038,492.695
					c0,0-1.634,1.272-4.743,3.687c-1.564,1.205-3.497,2.694-5.781,4.456c-2.344,1.68-5.05,3.616-8.098,5.798
					c-3.044,2.185-6.588,4.392-10.386,6.93c-1.901,1.267-3.983,2.43-6.097,3.727c-2.14,1.25-4.301,2.67-6.668,3.898
					c-9.287,5.277-20.294,10.592-32.971,15.271c-12.676,4.623-27.117,8.551-43.033,10.193c-15.879,1.781-33.178,1.288-50.886-1.956
					c-17.747-3.106-35.751-9.127-53.621-16.824c-17.843-7.814-35.544-17.384-53.187-27.796c-17.65-10.42-34.495-21.091-50.88-31.104
					c-16.375-10.035-32.3-19.408-47.874-27.529c-7.791-4.055-15.461-7.854-23.057-11.218c-3.771-1.753-7.566-3.274-11.274-4.853
					c-3.752-1.462-7.42-2.974-11.093-4.262c-14.652-5.291-28.693-9.164-41.746-11.513c-13.049-2.384-25.049-3.435-35.612-3.678
					c-10.565-0.145-19.688,0.325-27.107,1.092c-7.418,0.78-13.173,1.6-17.038,2.336c-3.88,0.682-5.918,1.04-5.918,1.04
					s2.013-0.479,5.848-1.38c3.829-0.958,9.536-2.09,16.951-3.252c3.714-0.519,7.842-1.155,12.406-1.501
					c4.546-0.509,9.513-0.67,14.857-0.902c10.688-0.229,22.906,0.325,36.271,2.241c13.368,1.886,27.813,5.335,42.901,10.276
					c3.788,1.202,7.564,2.628,11.429,4.009c3.812,1.498,7.726,2.947,11.603,4.623c7.813,3.226,15.695,6.896,23.683,10.837
					c15.97,7.896,32.224,17.099,48.786,26.985c16.578,9.87,33.473,20.427,50.979,30.76c17.507,10.329,34.868,19.848,52.212,27.685
					c17.37,7.718,34.71,13.842,51.775,17.205c17.021,3.499,33.652,4.414,49.076,3.155c15.453-1.121,29.639-4.445,42.229-8.507
					c12.59-4.112,23.669-8.889,33.086-13.7c2.4-1.111,4.598-2.42,6.779-3.559c2.152-1.191,4.271-2.247,6.22-3.412
					c3.888-2.337,7.522-4.357,10.661-6.377c3.146-2.013,5.939-3.802,8.363-5.352c2.371-1.63,4.379-3.01,6.003-4.122
					C587.334,493.868,589.038,492.695,589.038,492.695z"/>
			</g>
		</g>
	</g>
</g>
<g>
	<path d="M217.118,340.176C237.504,171.957,351.26,57.146,486.762,57.146c122.119,0,231.494,69.022,239.986,208.128h26.547V22.104
		h-70.084c14.869,29.732,24.428,59.465,30.8,92.384C658.791,38.033,579.148,10.425,486.762,10.425
		c-205.938,0-325.198,139.378-363.389,295.978C140.189,310.823,181.422,322.589,217.118,340.176z"/>
	<path d="M605.695,412.875v70.082c36.107-13.806,72.209-26.546,110.438-33.981c-41.417,28.672-37.169,54.159-37.169,82.828V687.9
		c-54.158,37.165-123.178,53.094-180.517,53.094c-147.908,0-256.185-113.07-279.761-277.353
		c-27.803-14.911-71.477-35.977-108.879-43.624c0.328,232.087,147.83,371.945,361.027,371.945
		c46.723,0,100.881-3.186,144.416-16.989c52.031-15.929,103.004-38.229,125.301-38.229h30.797V578.526
		c0-75.392-6.367-126.363,73.27-139.104v-26.547H605.695z"/>
</g>
</svg>
